<?xml version="1.0" encoding="UTF-8" standalone="no"?>
<svg
   xmlns:dc="http://purl.org/dc/elements/1.1/"
   xmlns:cc="http://creativecommons.org/ns#"
   xmlns:rdf="http://www.w3.org/1999/02/22-rdf-syntax-ns#"
   xmlns:svg="http://www.w3.org/2000/svg"
   xmlns="http://www.w3.org/2000/svg"
   width="512"
   height="512"
   viewBox="0 0 135.46666 135.46667"
   version="1.1"
   id="svg8">
  <defs
     id="defs2" />
  <metadata
     id="metadata5">
    <rdf:RDF>
      <cc:Work
         rdf:about="">
        <dc:format>image/svg+xml</dc:format>
        <dc:type
           rdf:resource="http://purl.org/dc/dcmitype/StillImage" />
        <dc:title></dc:title>
      </cc:Work>
    </rdf:RDF>
  </metadata>
  <g
     id="layer1">
    <g
       id="g855"
       transform="matrix(0.26458333,0,0,0.26458333,1.3021218,-0.1860305)">
      <path
         id="path835"
         d="m 346.65,304.3 a 136,136 0 0 0 -180.71,0 21,21 0 1 0 27.91,31.38 94,94 0 0 1 124.89,0 21.005524,21.005524 0 0 0 27.91,-31.4 z" />
      <path
         id="path837"
         d="m 256.28,183.7 a 221.47,221.47 0 0 0 -151.8,59.92 21,21 0 1 0 28.68,30.67 180.28,180.28 0 0 1 246.24,0 21,21 0 1 0 28.68,-30.67 221.47,221.47 0 0 0 -151.8,-59.92 z" />
      <path
         id="path839"
         d="m 462,175.86 a 309,309 0 0 0 -411.44,0 21,21 0 1 0 28,31.29 267,267 0 0 1 355.43,0 21.001881,21.001881 0 0 0 28,-31.31 z" />
      <circle
         id="circle841"
         r="32"
         cy="393.41"
         cx="256.28" />
    </g>
    <path
       id="path859"
       d="M 102.64601,22.012631 34.785442,99.229121"
       style="fill:#000000;fill-opacity:1;stroke:#000000;stroke-width:9.99999988;stroke-linecap:round;stroke-linejoin:bevel;stroke-miterlimit:4;stroke-dasharray:none;stroke-opacity:1;paint-order:stroke fill markers" />
  </g>
</svg>
